<svg width="32" height="33" viewBox="0 0 32 33" fill="none" xmlns="http://www.w3.org/2000/svg">
<path d="M28.2 32.384C27.56 32.384 27.0693 32.192 26.728 31.808L16.04 18.624L3.56 31.744C3.176 32.128 2.68533 32.32 2.088 32.32C1.576 32.32 1.128 32.128 0.744 31.744C0.36 31.3173 0.168 30.848 0.168 30.336C0.168 29.7387 0.36 29.248 0.744 28.864L13.416 15.872L3.304 3.776C2.92 3.30667 2.728 2.83733 2.728 2.368C2.728 1.856 2.92 1.408 3.304 1.024C3.688 0.597332 4.15733 0.383999 4.712 0.383999C5.30933 0.383999 5.77867 0.575999 6.12 0.959999L16.232 13.312L27.944 1.088C28.328 0.703999 28.8187 0.511999 29.416 0.511999C29.928 0.511999 30.376 0.725332 30.76 1.152C31.1867 1.536 31.4 1.984 31.4 2.496C31.4 3.05067 31.208 3.52 30.824 3.904L18.856 16.064L29.8 29.12C30.056 29.504 30.184 29.9307 30.184 30.4C30.184 30.9547 29.992 31.424 29.608 31.808C29.224 32.192 28.7547 32.384 28.2 32.384Z" fill="white"/>
</svg>
